<?xml version="1.0" encoding="UTF-8"?> <svg xmlns="http://www.w3.org/2000/svg" width="164" height="42" viewBox="0 0 164 42" fill="none"><g clip-path="url(#clip0_250_15)"><path d="M35.9891 17.3123C35.9659 17.5922 35.9454 17.8734 35.9454 18.1546V25.3874C35.9454 25.5963 35.8921 25.8009 35.7896 25.9805C35.612 26.2938 35.2733 26.7658 34.7241 27.047C34.4509 27.1862 34.1436 27.2447 33.8376 27.2447H24.7659C24.6389 27.2475 24.5337 27.3422 24.5118 27.4675C24.5091 27.4828 24.5077 27.4981 24.5077 27.5148V36.7357C24.5077 36.7357 24.5009 36.9362 24.4135 37.2258C24.0938 38.2867 23.1103 38.994 22.0202 38.994H14.8213C13.7654 38.994 12.831 38.2965 12.5141 37.269C12.4882 37.1868 12.4759 37.1005 12.4759 37.0128L12.4854 35.5927C12.4868 35.4131 12.3803 35.2655 12.2341 35.1987C12.1562 35.1653 12.0702 35.1541 11.98 35.1722C11.297 35.3198 10.0239 35.4785 8.78354 35.04C8.78354 35.04 6.5706 34.3369 5.96819 30.3815C5.85344 29.6297 5.82612 28.8681 5.86027 28.1079L5.8835 27.583L6.00644 28.1483C6.00644 28.1483 6.96948 34.9091 12.148 32.4671C12.1754 32.4546 12.2054 32.4406 12.2341 32.4281C12.4294 32.3376 12.6261 32.2568 12.8283 32.1817C13.6151 31.8879 15.8281 30.827 18.7035 27.4633C20.2826 25.6158 22.0626 23.0707 23.9149 19.5761C23.9149 19.5761 24.2769 18.8396 24.7673 17.6548C25.1019 16.8459 25.4954 15.8268 25.8737 14.6907C27.1264 10.926 28.2014 5.88047 26.3587 2.92052C25.6702 1.81785 24.4804 1.1259 23.1977 1.13286C22.3399 1.13982 21.217 1.37093 19.9043 2.1506C19.571 2.34969 19.2267 2.5822 18.8716 2.85508C18.8866 2.83281 19.1024 2.54461 19.5163 2.1506C20.1447 1.55471 21.2307 0.720749 22.7756 0.223711C25.1033 -0.525325 27.6359 0.578738 28.6386 2.84673C29.4267 4.63579 29.8721 7.47739 29.2587 11.9925C29.2587 11.9925 29.0975 13.2316 28.7724 14.6893C28.4965 15.9326 28.1017 17.3346 27.5867 18.2688L29.1727 15.7961C29.4855 15.3089 30.0141 15.0081 30.5865 14.9928L33.7966 14.9037C34.0739 14.8954 34.3499 14.9385 34.608 15.0388C35.2132 15.2796 36.1093 15.8699 35.9891 17.3123Z" fill="#1B6EA6"></path><path d="M15.5589 27.4687C14.7667 28.7718 13.7599 30.1752 12.5045 31.683V27.6204C12.5045 27.5661 12.495 27.5146 12.4759 27.4687C12.4321 27.3601 12.3461 27.2765 12.2368 27.2376C12.1972 27.225 12.1562 27.2167 12.1111 27.2167L3.16784 27.1679C2.52035 27.1638 1.88789 26.9034 1.46032 26.4078C1.22537 26.1363 1.03686 25.784 1.00134 25.3371V16.8791C1.00134 16.8791 1.00134 15.6748 2.37965 15.1305C2.71706 14.9968 3.08042 14.9425 3.44241 14.9425H12.2805L12.2928 14.7949V11.9993C12.2928 11.9993 14.488 12.7483 16.1778 14.6961C18.1872 17.01 19.4862 21.0155 15.5589 27.4687Z" fill="#59AFE2"></path><path d="M23.2919 3.44549C23.0665 3.31323 22.8029 3.21438 22.5024 3.17679C22.415 3.16565 22.3275 3.16565 22.2401 3.16565H14.8814C14.4552 3.16565 14.029 3.25475 13.6492 3.45385C13.6151 3.47195 13.5796 3.49144 13.5441 3.51232C12.8173 3.93835 12.3939 4.75143 12.4034 5.60489L12.4349 8.90594C12.4362 9.0396 12.3529 9.15515 12.2354 9.19692C12.204 9.20945 12.1699 9.21641 12.133 9.21641H8.99524C8.99524 9.21641 10.2711 9.5074 12.2354 10.4583C13.9511 11.2867 16.19 12.6191 18.5614 14.6977C19.1925 15.2505 19.8318 15.8547 20.4739 16.5188C20.4739 16.5188 22.6772 19.0458 23.8629 15.4162C23.9312 15.1781 23.9941 14.94 24.0501 14.6991C24.1443 14.2996 24.2195 13.8958 24.2782 13.4879C24.3711 12.8363 24.4175 12.1764 24.4175 11.5178V5.50047C24.4162 4.66372 24.005 3.86178 23.2919 3.44549ZM20.9151 14.6755C19.4767 14.6755 18.3292 13.4071 18.489 11.9077C18.6106 10.7674 19.5149 9.84432 20.6337 9.71624C22.1076 9.54777 23.3548 10.7187 23.3548 12.1875C23.3548 13.5617 22.262 14.6755 20.9151 14.6755Z" fill="#59AFE2"></path></g><path d="M47.8651 21V2.09091H51.2905V18.1286H59.6186V21H47.8651ZM59.3947 2.09091H63.2633L67.889 10.456H68.0737L72.6994 2.09091H76.568L69.6895 13.946V21H66.2733V13.946L59.3947 2.09091ZM78.994 21V2.09091H91.1076V4.96236H82.4194V10.0959H90.2766V12.9673H82.4194V21H78.994ZM110.954 7.28906C110.868 6.48272 110.504 5.85488 109.864 5.40554C109.23 4.9562 108.406 4.73153 107.39 4.73153C106.676 4.73153 106.063 4.83925 105.553 5.05469C105.042 5.27012 104.651 5.5625 104.38 5.93182C104.109 6.30114 103.971 6.72277 103.964 7.19673C103.964 7.59067 104.054 7.93229 104.232 8.22159C104.417 8.51089 104.666 8.7571 104.98 8.96023C105.294 9.1572 105.642 9.32339 106.023 9.45881C106.405 9.59422 106.79 9.7081 107.178 9.80043L108.95 10.2436C109.664 10.4098 110.351 10.6345 111.009 10.9176C111.674 11.2008 112.268 11.5578 112.791 11.9886C113.321 12.4195 113.739 12.9396 114.047 13.549C114.355 14.1584 114.509 14.8724 114.509 15.6911C114.509 16.799 114.225 17.7746 113.659 18.6179C113.093 19.455 112.274 20.1106 111.203 20.5845C110.138 21.0523 108.849 21.2862 107.335 21.2862C105.863 21.2862 104.586 21.0585 103.503 20.603C102.426 20.1475 101.582 19.4827 100.973 18.6087C100.37 17.7346 100.044 16.6697 99.9943 15.4141H103.364C103.414 16.0727 103.617 16.6205 103.974 17.0575C104.331 17.4946 104.795 17.8208 105.368 18.0362C105.946 18.2517 106.593 18.3594 107.307 18.3594C108.052 18.3594 108.704 18.2486 109.264 18.027C109.83 17.7992 110.274 17.4853 110.594 17.0852C110.914 16.679 111.077 16.205 111.083 15.6634C111.077 15.1709 110.932 14.7647 110.649 14.4446C110.366 14.1184 109.969 13.8475 109.458 13.6321C108.953 13.4105 108.362 13.2135 107.685 13.0412L105.534 12.4872C103.977 12.0871 102.746 11.4808 101.841 10.6683C100.942 9.84967 100.493 8.76326 100.493 7.40909C100.493 6.29498 100.795 5.31936 101.398 4.48224C102.007 3.64512 102.835 2.99574 103.881 2.53409C104.928 2.06629 106.113 1.83239 107.436 1.83239C108.778 1.83239 109.954 2.06629 110.963 2.53409C111.979 2.99574 112.776 3.63897 113.354 4.46378C113.933 5.28243 114.232 6.22419 114.25 7.28906H110.954ZM126.454 15.0355V6.81818H129.796V21H126.555V18.4794H126.407C126.087 19.2734 125.561 19.9228 124.829 20.4276C124.102 20.9323 123.207 21.1847 122.142 21.1847C121.212 21.1847 120.391 20.9785 119.677 20.5661C118.969 20.1475 118.415 19.5412 118.015 18.7472C117.615 17.947 117.415 16.9806 117.415 15.848V6.81818H120.757V15.331C120.757 16.2296 121.003 16.9437 121.496 17.473C121.988 18.0024 122.634 18.267 123.434 18.267C123.927 18.267 124.404 18.147 124.866 17.907C125.327 17.6669 125.706 17.3099 126.001 16.8359C126.303 16.3558 126.454 15.7557 126.454 15.0355ZM133.233 21V6.81818H136.575V21H133.233ZM134.913 4.8054C134.384 4.8054 133.929 4.62997 133.547 4.27912C133.165 3.92211 132.974 3.49432 132.974 2.99574C132.974 2.491 133.165 2.06321 133.547 1.71236C133.929 1.35535 134.384 1.17685 134.913 1.17685C135.449 1.17685 135.904 1.35535 136.28 1.71236C136.661 2.06321 136.852 2.491 136.852 2.99574C136.852 3.49432 136.661 3.92211 136.28 4.27912C135.904 4.62997 135.449 4.8054 134.913 4.8054ZM147.094 6.81818V9.40341H138.941V6.81818H147.094ZM140.954 3.42045H144.296V16.7344C144.296 17.1837 144.364 17.5284 144.499 17.7685C144.641 18.0024 144.826 18.1624 145.053 18.2486C145.281 18.3348 145.534 18.3778 145.811 18.3778C146.02 18.3778 146.211 18.3625 146.383 18.3317C146.561 18.3009 146.697 18.2732 146.789 18.2486L147.352 20.8615C147.174 20.9231 146.919 20.9908 146.586 21.0646C146.26 21.1385 145.86 21.1816 145.386 21.1939C144.549 21.2185 143.795 21.0923 143.124 20.8153C142.453 20.5322 141.92 20.0952 141.526 19.5043C141.139 18.9134 140.948 18.1747 140.954 17.2884V3.42045ZM156.015 21.277C154.593 21.277 153.365 20.9815 152.331 20.3906C151.303 19.7936 150.512 18.9503 149.958 17.8608C149.404 16.7652 149.127 15.4756 149.127 13.9922C149.127 12.5334 149.404 11.2531 149.958 10.1513C150.519 9.04332 151.3 8.18158 152.304 7.56605C153.307 6.94437 154.486 6.63352 155.84 6.63352C156.714 6.63352 157.539 6.77509 158.314 7.05824C159.096 7.33523 159.785 7.7661 160.382 8.35085C160.986 8.93561 161.46 9.6804 161.804 10.5852C162.149 11.4839 162.321 12.5549 162.321 13.7983V14.8232H150.697V12.5703H159.118C159.111 11.9302 158.973 11.3608 158.702 10.8622C158.431 10.3575 158.053 9.96046 157.566 9.67116C157.086 9.38187 156.526 9.23722 155.886 9.23722C155.203 9.23722 154.603 9.40341 154.086 9.73579C153.569 10.062 153.165 10.4929 152.876 11.0284C152.593 11.5578 152.448 12.1394 152.442 12.7734V14.7401C152.442 15.5649 152.593 16.2727 152.895 16.8636C153.196 17.4484 153.618 17.8977 154.159 18.2116C154.701 18.5194 155.335 18.6733 156.061 18.6733C156.548 18.6733 156.988 18.6056 157.382 18.4702C157.776 18.3286 158.117 18.1224 158.407 17.8516C158.696 17.5807 158.914 17.2453 159.062 16.8452L162.183 17.196C161.986 18.0208 161.61 18.741 161.056 19.3565C160.509 19.9659 159.807 20.4399 158.951 20.7784C158.096 21.1108 157.117 21.277 156.015 21.277Z" fill="#101828"></path><path d="M46.4134 39L47.8622 30.2727H49.179L47.9176 37.8665H51.8722L51.6847 39H46.4134ZM53.0845 39L54.1754 32.4545H55.4496L54.3587 39H53.0845ZM55.0788 31.4318C54.8572 31.4318 54.6697 31.358 54.5163 31.2102C54.3658 31.0597 54.2962 30.8807 54.3075 30.6733C54.3189 30.4631 54.407 30.2841 54.5717 30.1364C54.7365 29.9858 54.9283 29.9105 55.147 29.9105C55.3686 29.9105 55.5547 29.9858 55.7053 30.1364C55.8558 30.2841 55.9268 30.4631 55.9183 30.6733C55.907 30.8807 55.8189 31.0597 55.6541 31.2102C55.4922 31.358 55.3004 31.4318 55.0788 31.4318ZM62.7631 32.4545L59.2987 39H57.935L56.6481 32.4545H57.9648L58.783 37.4915H58.8512L61.3441 32.4545H62.7631ZM65.451 39.1321C64.8089 39.1321 64.2777 38.9943 63.8572 38.7188C63.4396 38.4403 63.147 38.0497 62.9794 37.5469C62.8118 37.0412 62.7848 36.4489 62.8984 35.7699C63.0092 35.0994 63.2322 34.5085 63.5675 33.9972C63.9027 33.4858 64.3203 33.0866 64.8203 32.7997C65.3232 32.5128 65.8786 32.3693 66.4865 32.3693C66.8558 32.3693 67.2038 32.4304 67.5305 32.5526C67.8601 32.6747 68.1399 32.8665 68.37 33.1278C68.6001 33.3892 68.7592 33.7287 68.8473 34.1463C68.9382 34.5611 68.9354 35.0653 68.8388 35.6591L68.7663 36.1108H63.5589L63.7081 35.1562H67.6626C67.7223 34.821 67.7067 34.5241 67.6158 34.2656C67.5249 34.0043 67.3686 33.7983 67.147 33.6477C66.9283 33.4972 66.6527 33.4219 66.3203 33.4219C65.9794 33.4219 65.6612 33.5114 65.3658 33.6903C65.0703 33.8693 64.8232 34.098 64.6243 34.3764C64.4283 34.652 64.3047 34.9361 64.2536 35.2287L64.1044 36.1023C64.0305 36.5795 64.0433 36.9631 64.1428 37.2528C64.245 37.5426 64.424 37.7528 64.6797 37.8835C64.9354 38.0142 65.255 38.0795 65.6385 38.0795C65.8857 38.0795 66.1143 38.0455 66.3246 37.9773C66.5376 37.9062 66.7266 37.8026 66.8913 37.6662C67.0561 37.527 67.1939 37.3537 67.3047 37.1463L68.4723 37.3636C68.3161 37.7187 68.0916 38.0298 67.799 38.2969C67.5064 38.5611 67.1612 38.767 66.7635 38.9148C66.3686 39.0597 65.9311 39.1321 65.451 39.1321ZM77.0355 32.4545L76.8693 33.4773H73.294L73.4602 32.4545H77.0355ZM74.6747 30.8864H75.9489L74.9176 37.0781C74.8778 37.3253 74.8849 37.5114 74.9389 37.6364C74.9929 37.7585 75.0753 37.8423 75.1861 37.8878C75.2997 37.9304 75.4261 37.9517 75.5653 37.9517C75.6676 37.9517 75.7571 37.9446 75.8338 37.9304C75.9105 37.9162 75.9716 37.9048 76.017 37.8963L76.0852 38.9489C76 38.9773 75.8849 39.0057 75.7401 39.0341C75.598 39.0653 75.4247 39.0824 75.2202 39.0852C74.8849 39.0909 74.5824 39.0312 74.3125 38.9062C74.0426 38.7784 73.8409 38.5852 73.7074 38.3267C73.5739 38.0653 73.5412 37.7372 73.6094 37.3423L74.6747 30.8864ZM80.0707 39.1321C79.4485 39.1321 78.9286 38.9901 78.511 38.706C78.0934 38.419 77.7994 38.0185 77.6289 37.5043C77.4613 36.9872 77.4329 36.3864 77.5437 35.7017C77.6516 35.0312 77.869 34.446 78.1957 33.946C78.5252 33.446 78.9371 33.0582 79.4315 32.7827C79.9286 32.5071 80.4812 32.3693 81.0891 32.3693C81.7113 32.3693 82.2298 32.5128 82.6445 32.7997C83.0621 33.0866 83.3562 33.4886 83.5266 34.0057C83.6971 34.5227 83.7269 35.125 83.6161 35.8125C83.5082 36.4773 83.288 37.0597 82.9556 37.5597C82.6261 38.0568 82.2141 38.4432 81.7198 38.7188C81.2255 38.9943 80.6758 39.1321 80.0707 39.1321ZM80.1431 38.0625C80.5522 38.0625 80.9087 37.9545 81.2127 37.7386C81.5195 37.5227 81.7695 37.2358 81.9627 36.8778C82.1559 36.5199 82.288 36.1278 82.359 35.7017C82.4244 35.2898 82.4229 34.9134 82.3548 34.5724C82.2894 34.2287 82.1474 33.9531 81.9286 33.7457C81.7099 33.5384 81.4059 33.4347 81.0167 33.4347C80.6076 33.4347 80.2482 33.544 79.9386 33.7628C79.6317 33.9787 79.3817 34.267 79.1886 34.6278C78.9982 34.9886 78.869 35.3821 78.8008 35.8082C78.7354 36.2173 78.7354 36.5938 78.8008 36.9375C78.8661 37.2784 79.0082 37.5511 79.2269 37.7557C79.4457 37.9602 79.7511 38.0625 80.1431 38.0625ZM88.5678 30.2727H90.0636L91.6914 34.2401H91.7894L94.717 30.2727H96.2127L92.1687 35.5739L91.5977 39H90.2852L90.8519 35.5739L88.5678 30.2727ZM97.6136 39.1321C96.9915 39.1321 96.4716 38.9901 96.054 38.706C95.6364 38.419 95.3423 38.0185 95.1719 37.5043C95.0043 36.9872 94.9759 36.3864 95.0866 35.7017C95.1946 35.0312 95.4119 34.446 95.7386 33.946C96.0682 33.446 96.4801 33.0582 96.9744 32.7827C97.4716 32.5071 98.0241 32.3693 98.6321 32.3693C99.2543 32.3693 99.7727 32.5128 100.188 32.7997C100.605 33.0866 100.899 33.4886 101.07 34.0057C101.24 34.5227 101.27 35.125 101.159 35.8125C101.051 36.4773 100.831 37.0597 100.499 37.5597C100.169 38.0568 99.7571 38.4432 99.2628 38.7188C98.7685 38.9943 98.2188 39.1321 97.6136 39.1321ZM97.6861 38.0625C98.0952 38.0625 98.4517 37.9545 98.7557 37.7386C99.0625 37.5227 99.3125 37.2358 99.5057 36.8778C99.6989 36.5199 99.831 36.1278 99.902 35.7017C99.9673 35.2898 99.9659 34.9134 99.8977 34.5724C99.8324 34.2287 99.6903 33.9531 99.4716 33.7457C99.2528 33.5384 98.9489 33.4347 98.5597 33.4347C98.1506 33.4347 97.7912 33.544 97.4815 33.7628C97.1747 33.9787 96.9247 34.267 96.7315 34.6278C96.5412 34.9886 96.4119 35.3821 96.3438 35.8082C96.2784 36.2173 96.2784 36.5938 96.3438 36.9375C96.4091 37.2784 96.5511 37.5511 96.7699 37.7557C96.9886 37.9602 97.294 38.0625 97.6861 38.0625ZM106.655 36.2855L107.294 32.4545H108.573L107.482 39H106.229L106.421 37.8665H106.353C106.148 38.2159 105.858 38.5071 105.483 38.7401C105.111 38.9702 104.679 39.0852 104.188 39.0852C103.767 39.0852 103.411 38.9929 103.118 38.8082C102.828 38.6207 102.623 38.3438 102.5 37.9773C102.378 37.6108 102.361 37.1577 102.449 36.6179L103.148 32.4545H104.422L103.753 36.4645C103.682 36.9105 103.749 37.2656 103.953 37.5298C104.158 37.794 104.456 37.9261 104.848 37.9261C105.087 37.9261 105.334 37.8665 105.59 37.7472C105.846 37.6278 106.071 37.4474 106.267 37.206C106.466 36.9645 106.596 36.6577 106.655 36.2855ZM109.194 39L110.285 32.4545H111.516L111.342 33.4943H111.41C111.586 33.142 111.843 32.8651 112.181 32.6634C112.519 32.4588 112.88 32.3565 113.263 32.3565C113.346 32.3565 113.44 32.3594 113.545 32.3651C113.65 32.3679 113.735 32.375 113.8 32.3864L113.596 33.6051C113.548 33.5909 113.46 33.5753 113.332 33.5582C113.204 33.5384 113.072 33.5284 112.935 33.5284C112.637 33.5284 112.36 33.5923 112.104 33.7202C111.849 33.8452 111.634 34.0199 111.461 34.2443C111.288 34.4659 111.175 34.7187 111.124 35.0028L110.468 39H109.194ZM117.101 39L118.55 30.2727H123.962L123.774 31.4062H119.679L119.236 34.0653H122.943L122.756 35.1946H119.048L118.418 39H117.101ZM128.218 36.2855L128.857 32.4545H130.135L129.044 39H127.792L127.983 37.8665H127.915C127.711 38.2159 127.421 38.5071 127.046 38.7401C126.674 38.9702 126.242 39.0852 125.75 39.0852C125.33 39.0852 124.973 38.9929 124.681 38.8082C124.391 38.6207 124.185 38.3438 124.063 37.9773C123.941 37.6108 123.924 37.1577 124.012 36.6179L124.711 32.4545H125.985L125.316 36.4645C125.245 36.9105 125.311 37.2656 125.516 37.5298C125.721 37.794 126.019 37.9261 126.411 37.9261C126.65 37.9261 126.897 37.8665 127.152 37.7472C127.408 37.6278 127.634 37.4474 127.83 37.206C128.029 36.9645 128.158 36.6577 128.218 36.2855ZM133.479 30.2727L132.031 39H130.756L132.205 30.2727H133.479ZM136.468 30.2727L135.019 39H133.745L135.194 30.2727H136.468ZM139.537 39.1321C138.895 39.1321 138.364 38.9943 137.943 38.7188C137.526 38.4403 137.233 38.0497 137.065 37.5469C136.898 37.0412 136.871 36.4489 136.984 35.7699C137.095 35.0994 137.318 34.5085 137.653 33.9972C137.989 33.4858 138.406 33.0866 138.906 32.7997C139.409 32.5128 139.964 32.3693 140.572 32.3693C140.942 32.3693 141.29 32.4304 141.616 32.5526C141.946 32.6747 142.226 32.8665 142.456 33.1278C142.686 33.3892 142.845 33.7287 142.933 34.1463C143.024 34.5611 143.021 35.0653 142.925 35.6591L142.852 36.1108H137.645L137.794 35.1562H141.749C141.808 34.821 141.793 34.5241 141.702 34.2656C141.611 34.0043 141.455 33.7983 141.233 33.6477C141.014 33.4972 140.739 33.4219 140.406 33.4219C140.065 33.4219 139.747 33.5114 139.452 33.6903C139.156 33.8693 138.909 34.098 138.71 34.3764C138.514 34.652 138.391 34.9361 138.339 35.2287L138.19 36.1023C138.116 36.5795 138.129 36.9631 138.229 37.2528C138.331 37.5426 138.51 37.7528 138.766 37.8835C139.021 38.0142 139.341 38.0795 139.724 38.0795C139.972 38.0795 140.2 38.0455 140.411 37.9773C140.624 37.9062 140.813 37.8026 140.977 37.6662C141.142 37.527 141.28 37.3537 141.391 37.1463L142.558 37.3636C142.402 37.7187 142.178 38.0298 141.885 38.2969C141.592 38.5611 141.247 38.767 140.849 38.9148C140.455 39.0597 140.017 39.1321 139.537 39.1321ZM149.531 34.0526L148.342 34.2571C148.316 34.1065 148.264 33.9645 148.184 33.831C148.108 33.6974 147.99 33.5895 147.831 33.5071C147.672 33.4219 147.46 33.3793 147.196 33.3793C146.829 33.3793 146.508 33.4631 146.233 33.6307C145.96 33.7983 145.804 34.0114 145.764 34.2699C145.727 34.4801 145.777 34.6506 145.913 34.7812C146.049 34.9091 146.289 35.0156 146.633 35.1009L147.639 35.3395C148.218 35.4787 148.633 35.696 148.883 35.9915C149.136 36.2841 149.224 36.6648 149.147 37.1335C149.082 37.5227 148.912 37.8679 148.636 38.169C148.363 38.4702 148.014 38.706 147.588 38.8764C147.162 39.0469 146.687 39.1321 146.164 39.1321C145.42 39.1321 144.841 38.9744 144.426 38.6591C144.011 38.3438 143.798 37.8977 143.787 37.321L145.048 37.1335C145.071 37.4545 145.186 37.6974 145.393 37.8622C145.603 38.0241 145.895 38.1051 146.267 38.1051C146.693 38.108 147.049 38.0185 147.336 37.8366C147.623 37.6548 147.787 37.4347 147.826 37.1761C147.86 36.9744 147.815 36.8068 147.69 36.6733C147.568 36.5398 147.352 36.4375 147.042 36.3665L145.985 36.1236C145.395 35.9844 144.977 35.7599 144.733 35.4503C144.488 35.1406 144.406 34.7514 144.485 34.2827C144.548 33.8991 144.71 33.5653 144.971 33.2812C145.235 32.9943 145.569 32.7713 145.973 32.6122C146.376 32.4503 146.822 32.3693 147.311 32.3693C148.024 32.3693 148.559 32.5227 148.917 32.8295C149.275 33.1335 149.48 33.5412 149.531 34.0526ZM154.379 32.4545L154.213 33.4773H150.638L150.804 32.4545H154.379ZM152.018 30.8864H153.293L152.261 37.0781C152.222 37.3253 152.229 37.5114 152.283 37.6364C152.337 37.7585 152.419 37.8423 152.53 37.8878C152.643 37.9304 152.77 37.9517 152.909 37.9517C153.011 37.9517 153.101 37.9446 153.178 37.9304C153.254 37.9162 153.315 37.9048 153.361 37.8963L153.429 38.9489C153.344 38.9773 153.229 39.0057 153.084 39.0341C152.942 39.0653 152.768 39.0824 152.564 39.0852C152.229 39.0909 151.926 39.0312 151.656 38.9062C151.386 38.7784 151.185 38.5852 151.051 38.3267C150.918 38.0653 150.885 37.7372 150.953 37.3423L152.018 30.8864Z" fill="#1870A3"></path><defs><clipPath id="clip0_250_15"><rect width="35" height="39" fill="white" transform="translate(1)"></rect></clipPath></defs></svg> 